<?xml version="1.0" encoding="UTF-8" standalone="no"?>
<svg
   xmlns:dc="http://purl.org/dc/elements/1.1/"
   xmlns:cc="http://creativecommons.org/ns#"
   xmlns:rdf="http://www.w3.org/1999/02/22-rdf-syntax-ns#"
   xmlns:svg="http://www.w3.org/2000/svg"
   xmlns="http://www.w3.org/2000/svg"
   xmlns:sodipodi="http://sodipodi.sourceforge.net/DTD/sodipodi-0.dtd"
   xmlns:inkscape="http://www.inkscape.org/namespaces/inkscape"
   viewBox="0 0 12.86 9.7460001"
   version="1.1"
   id="svg14"
   sodipodi:docname="logo.svg"
   width="12.86"
   height="9.7460003"
   inkscape:version="0.92.5 (2060ec1f9f, 2020-04-08)">
  <metadata
     id="metadata20">
    <rdf:RDF>
      <cc:Work
         rdf:about="">
        <dc:format>image/svg+xml</dc:format>
        <dc:type
           rdf:resource="http://purl.org/dc/dcmitype/StillImage" />
      </cc:Work>
    </rdf:RDF>
  </metadata>
  <defs
     id="defs18" />
  <sodipodi:namedview
     pagecolor="#ffffff"
     bordercolor="#666666"
     borderopacity="1"
     objecttolerance="10"
     gridtolerance="10"
     guidetolerance="10"
     inkscape:pageopacity="0"
     inkscape:pageshadow="2"
     inkscape:window-width="1600"
     inkscape:window-height="837"
     id="namedview16"
     showgrid="false"
     inkscape:zoom="8.820233"
     inkscape:cx="20.521"
     inkscape:cy="2.4169998"
     inkscape:window-x="-8"
     inkscape:window-y="75"
     inkscape:window-maximized="1"
     inkscape:current-layer="g12" />
  <g
     font-weight="400"
     font-size="11.319"
     letter-spacing="0"
     word-spacing="0"
     id="g12"
     style="font-weight:400;font-size:11.31900024px;font-family:Pacifico;letter-spacing:0;word-spacing:0;fill:#ff4663"
     transform="translate(0,-0.057)">
    <path
       d="m 5.784,0.068 q 0.294,0 0.498,0.147 0.204,0.136 0.204,0.34 0,0.362 -0.226,0.588 -0.227,0.215 -0.646,0.215 -0.656,0 -0.996,0.012 L 4.414,2.592 4.165,4.075 3.928,5.558 Q 3.678,7.222 3.532,8.342 3.769,8.331 4.177,8.331 q 0.6,0 0.815,0.158 0.215,0.159 0.215,0.476 0,0.294 -0.238,0.498 Q 4.743,9.667 4.324,9.667 4.041,9.667 3.43,9.644 2.864,9.621 2.683,9.621 1.97,9.621 1.121,9.746 0.747,9.803 0.589,9.803 0.339,9.803 0.169,9.667 0,9.53 0,9.27 0,8.862 0.362,8.636 0.724,8.409 1.381,8.398 L 1.913,8.387 1.947,8.137 Q 2.219,6.327 2.343,5.579 L 2.593,4.097 Q 2.817,2.785 3,1.392 L 2.049,1.404 Q 1.641,1.404 1.483,1.279 1.336,1.143 1.336,0.906 q 0,-0.77 1.109,-0.827 0.52,-0.022 1.268,-0.022 z m 1.349,9.587 q -0.43,0 -0.612,-0.452 -0.17,-0.453 -0.17,-1.45 0,-1.47 0.42,-2.795 Q 6.872,4.63 7.099,4.482 7.336,4.324 7.755,4.324 q 0.227,0 0.317,0.057 0.09,0.056 0.09,0.215 0,0.18 -0.169,0.815 Q 7.88,5.863 7.812,6.203 7.744,6.543 7.699,7.041 8.072,6.067 8.536,5.456 9,4.845 9.442,4.584 q 0.453,-0.26 0.826,-0.26 0.736,0 0.736,0.736 0,0.441 -0.25,1.596 -0.214,0.984 -0.214,1.301 0,0.453 0.328,0.453 0.226,0 0.532,-0.271 0.317,-0.283 0.838,-0.906 0.135,-0.158 0.305,-0.158 0.147,0 0.227,0.135 0.09,0.136 0.09,0.374 0,0.453 -0.215,0.702 -0.487,0.6 -1.053,0.984 -0.554,0.385 -1.267,0.385 -0.578,0 -0.872,-0.328 Q 9.159,8.987 9.159,8.354 9.159,8.037 9.317,7.222 9.464,6.509 9.464,6.237 9.464,6.056 9.34,6.056 9.193,6.056 8.921,6.441 8.661,6.814 8.378,7.437 8.106,8.059 7.936,8.75 7.812,9.282 7.642,9.474 7.484,9.655 7.132,9.655 Z"
       style="line-height:1.25;-inkscape-font-specification:Pacifico;font-variant-ligatures:normal;font-variant-caps:normal;font-variant-numeric:normal;font-feature-settings:normal;text-align:start"
       id="path2"
       inkscape:connector-curvature="0" />
  </g>
</svg>
