<?xml version="1.0" standalone="no"?>
<!DOCTYPE svg PUBLIC "-//W3C//DTD SVG 20010904//EN"
 "http://www.w3.org/TR/2001/REC-SVG-20010904/DTD/svg10.dtd">
<svg version="1.0" xmlns="http://www.w3.org/2000/svg"
 width="832.000000pt" height="832.000000pt" viewBox="0 0 832.000000 832.000000"
 preserveAspectRatio="xMidYMid meet">
<metadata>
Created by potrace 1.14, written by Peter Selinger 2001-2017
</metadata>
<g transform="translate(0.000000,832.000000) scale(0.100000,-0.100000)"
fill="#000000" stroke="none">
<path d="M1687 7303 c-3 -3 -47 -7 -99 -9 -51 -2 -106 -5 -123 -8 -132 -21
-169 -28 -230 -49 -205 -67 -326 -191 -359 -368 -34 -178 16 -319 135 -380 32
-16 61 -29 64 -28 3 0 22 -2 43 -5 114 -18 169 -19 604 -13 l218 3 -5 -46 c-3
-25 -7 -56 -10 -70 -3 -14 -7 -47 -10 -75 -2 -27 -6 -59 -9 -70 -2 -12 -7 -48
-11 -80 -4 -33 -9 -69 -11 -80 -2 -11 -6 -40 -9 -65 -3 -25 -8 -56 -10 -70 -3
-14 -7 -43 -10 -65 -3 -22 -7 -51 -10 -65 -3 -14 -8 -50 -11 -80 -3 -30 -8
-58 -10 -61 -1 -3 -6 -28 -9 -56 -3 -27 -7 -59 -9 -70 -3 -11 -7 -44 -11 -73
-6 -51 -8 -63 -20 -120 -2 -14 -7 -45 -10 -70 -3 -25 -10 -70 -15 -100 -5 -30
-12 -71 -15 -90 -3 -19 -10 -61 -16 -93 -5 -32 -12 -74 -15 -95 -2 -20 -7 -50
-11 -67 -3 -16 -7 -37 -8 -45 -2 -17 -15 -94 -21 -125 -4 -17 -11 -63 -18
-115 -2 -8 -5 -28 -9 -45 -3 -16 -9 -46 -11 -65 -3 -19 -8 -46 -11 -60 -2 -14
-7 -41 -9 -60 -7 -49 -15 -97 -26 -155 -5 -27 -12 -66 -14 -85 -3 -19 -8 -46
-11 -60 -4 -25 -33 -197 -42 -255 -2 -16 -11 -66 -19 -110 -13 -73 -20 -118
-29 -185 -1 -14 -5 -38 -8 -55 -3 -16 -8 -50 -12 -75 -4 -25 -9 -58 -12 -75
-2 -16 -6 -41 -8 -55 -2 -14 -13 -81 -24 -150 -11 -69 -22 -143 -26 -165 -3
-22 -12 -80 -20 -130 -7 -49 -17 -110 -20 -135 -6 -47 -7 -53 -25 -165 -16
-99 -20 -124 -25 -175 -2 -25 -5 -45 -5 -45 -3 0 -23 -122 -25 -150 -3 -42
-16 -120 -21 -124 -2 -3 -69 -6 -147 -7 -162 -3 -380 -13 -417 -18 -14 -3 -43
-7 -65 -10 -41 -6 -64 -12 -169 -40 -91 -25 -232 -103 -291 -160 -55 -54 -105
-126 -105 -151 0 -8 -4 -15 -8 -15 -5 0 -9 -6 -10 -12 0 -7 -4 -26 -9 -43 -4
-16 -7 -73 -7 -125 1 -144 42 -220 154 -284 30 -17 57 -31 60 -31 3 -1 28 -7
57 -14 59 -14 231 -8 366 13 20 3 53 8 72 11 19 3 52 7 73 10 154 23 303 39
447 51 309 24 627 24 1215 -1 109 -5 431 -6 460 -1 160 24 238 61 330 156 64
65 78 85 101 145 20 50 21 57 24 140 8 230 -131 373 -390 401 -33 3 -64 8 -69
11 -7 5 -501 5 -581 1 -41 -2 -43 0 -34 45 4 23 10 69 14 102 4 33 9 74 12 90
5 31 6 40 18 138 3 32 8 68 11 80 2 12 7 42 9 67 3 25 8 56 10 70 9 49 14 86
19 130 7 56 14 108 26 185 5 33 12 83 15 110 4 28 8 61 11 75 2 14 6 40 9 58
3 17 8 49 11 70 3 20 7 48 9 62 2 14 7 45 9 70 3 25 8 56 11 69 2 14 9 59 15
101 6 42 13 87 16 101 2 13 6 42 8 64 3 22 7 54 10 70 3 17 12 75 21 130 9 55
18 111 20 125 2 14 11 70 20 125 9 55 18 111 20 125 3 14 8 45 11 70 3 25 8
54 10 65 3 11 7 36 10 55 2 19 7 46 9 60 3 14 7 43 11 65 5 40 30 193 40 250
3 17 7 44 10 60 2 17 5 41 8 55 11 56 39 217 42 245 2 17 6 41 10 55 3 13 8
40 10 60 2 19 7 46 9 60 3 14 8 41 11 60 3 19 10 60 15 90 6 30 12 64 13 75 2
11 6 40 10 65 4 25 10 59 12 75 3 17 7 37 9 45 2 8 7 33 10 55 3 23 7 50 9 60
2 11 7 40 10 65 3 25 8 56 11 70 3 14 10 52 15 85 6 33 12 72 15 88 8 47 24
141 29 177 3 19 9 56 14 82 5 26 7 50 4 53 -6 6 9 6 391 10 242 2 393 9 437
20 158 38 268 123 331 252 57 119 70 276 29 357 -46 90 -190 181 -317 201 -46
8 -2159 15 -2166 8z"/>
<path d="M4875 4539 c-22 -4 -54 -9 -72 -12 -162 -25 -307 -133 -376 -277 -32
-67 -101 -274 -113 -340 -3 -14 -12 -50 -20 -80 -8 -30 -17 -63 -19 -73 -2
-10 -6 -26 -9 -35 -3 -9 -7 -28 -10 -42 -2 -14 -12 -58 -20 -97 -9 -40 -18
-85 -21 -100 -3 -16 -7 -38 -9 -49 -2 -12 -7 -39 -10 -60 -4 -22 -11 -68 -17
-104 -6 -36 -12 -76 -14 -90 -9 -81 -18 -159 -21 -185 -2 -16 -6 -57 -9 -90
-3 -33 -8 -96 -12 -140 -10 -103 -10 -778 0 -870 21 -199 23 -216 42 -305 3
-14 7 -37 10 -51 10 -56 48 -166 73 -214 97 -181 248 -252 477 -221 135 19
225 89 294 230 23 45 41 88 41 94 0 7 4 20 10 30 10 17 49 148 56 187 14 80
118 433 153 521 10 27 20 54 21 59 1 6 6 20 11 33 5 13 9 26 9 29 0 3 6 19 14
36 7 18 37 88 66 157 46 109 178 377 244 495 20 35 99 158 163 250 61 89 175
193 221 199 56 9 95 -38 93 -111 -3 -119 -10 -190 -31 -303 -5 -24 -6 -48 -4
-52 3 -5 0 -8 -6 -8 -6 0 -9 -4 -6 -9 3 -4 -6 -64 -20 -132 -14 -68 -27 -137
-29 -154 -2 -16 -9 -50 -15 -75 -10 -41 -13 -63 -24 -140 -2 -14 -11 -68 -20
-120 -9 -52 -18 -115 -21 -140 -3 -25 -8 -65 -12 -90 -9 -66 -4 -355 7 -355 1
0 3 -16 5 -35 4 -46 31 -140 62 -215 46 -110 126 -208 218 -270 48 -32 157
-81 200 -90 11 -2 31 -6 45 -10 86 -19 264 -24 375 -11 110 14 120 15 180 30
138 34 266 85 380 151 75 44 228 152 285 201 14 12 48 41 75 64 92 78 279 266
339 341 11 13 41 49 68 81 50 58 113 180 123 239 3 19 10 51 15 73 11 49 7
277 -5 296 -5 8 -11 23 -12 32 -4 28 -44 91 -72 115 -34 30 -78 42 -132 36
-85 -10 -128 -44 -260 -204 -21 -24 -48 -56 -60 -70 -13 -15 -55 -62 -94 -105
-103 -115 -271 -283 -341 -341 -63 -52 -159 -111 -191 -118 -10 -2 -32 -8 -49
-13 -43 -13 -125 -7 -162 12 -40 20 -75 68 -95 128 -12 36 -15 79 -12 175 2
71 6 139 8 153 4 21 12 71 22 140 1 8 10 53 18 100 9 47 19 99 22 115 3 17 8
44 12 60 3 17 7 39 8 50 2 11 8 38 13 60 6 22 13 51 16 65 2 14 14 70 26 125
12 55 23 111 26 125 2 14 9 45 14 70 10 45 18 87 24 125 2 11 7 36 10 55 9 47
24 137 31 180 3 19 8 46 10 60 3 14 7 41 9 60 2 19 8 67 12 105 10 84 10 297
1 342 -27 126 -98 226 -192 271 -92 45 -131 54 -255 55 -116 1 -177 -8 -290
-45 -116 -38 -343 -157 -385 -202 -5 -6 -28 -24 -50 -41 -41 -30 -226 -212
-280 -275 -71 -83 -145 -180 -145 -189 0 -6 -4 -11 -8 -11 -7 0 -92 -123 -158
-230 -97 -157 -231 -433 -329 -675 -5 -11 -9 -23 -9 -27 -1 -4 -7 -13 -14 -20
-11 -11 -13 -9 -8 12 3 14 8 52 11 85 4 33 8 76 10 95 5 40 15 113 20 140 3
16 6 33 21 128 5 30 53 252 70 327 3 11 7 31 10 45 3 14 7 32 9 40 2 8 4 17 5
20 1 3 2 9 1 14 -1 4 4 14 10 22 6 8 9 14 6 14 -3 0 5 40 19 90 13 49 26 102
29 117 7 35 10 43 18 68 3 11 8 31 11 45 2 14 10 48 16 75 6 28 13 61 15 75 7
51 16 94 21 102 3 4 2 8 -3 8 -4 0 -8 22 -9 48 -1 73 -26 107 -93 128 -60 19
-232 26 -306 13z"/>
</g>
</svg>
